<?xml version="1.0" encoding="utf-8"?>
<!-- Generator: Adobe Illustrator 19.0.0, SVG Export Plug-In . SVG Version: 6.00 Build 0)  -->
<svg version="1.1" id="Capa_1" xmlns="http://www.w3.org/2000/svg" xmlns:xlink="http://www.w3.org/1999/xlink" x="101px" y="33px"
	 viewBox="397.326 148.746 101 33" enable-background="new 397.326 148.746 101 33" xml:space="preserve">
<g>
	<g>
		<path fill="#0094FF" d="M422.718,165.854c-0.325,1.456,0.48,3.168,2.449,3.168c0.925,0,1.644-0.343,2.158-1.01l1.627,1.182
			c-0.873,1.233-2.124,1.833-3.751,1.833c-5.138,0-6.131-6.457-2.364-8.598c0.925-0.531,2.038-0.719,3.1-0.565
			c2.843,0.411,3.014,2.894,1.867,3.443C427.274,163.405,423.317,163.165,422.718,165.854z"/>
		<path fill="#0094FF" d="M436.933,169.913c-2.586,2.569-6.954,0.822-6.954-3.477c0-2.757,2.09-4.727,4.333-4.641
			c2.192,0.086,2.552,2.038,2.141,2.775c-0.377-0.565-1.199-0.719-1.85-0.719c-3.168,0-3.237,5.224,0,5.224
			c1.815,0,2.329-1.815,2.329-3.408v-2.706v-0.942h2.226v8.872h-2.226V169.913z"/>
		<path fill="#0094FF" d="M443.389,163.867c-0.411,0.137-0.565,0.531-0.308,0.822c0.617,0.702,3.699,1.113,3.699,3.631
			c0,2.946-4.316,3.768-6.251,1.216l1.37-1.473c1.747,2.038,4.162,0.48,1.85-0.668c-1.473-0.736-2.894-1.473-2.894-3.066
			c0-1.627,1.49-2.586,3.049-2.518c2.638,0.137,2.689,2.381,1.37,2.929C444.931,163.884,443.835,163.696,443.389,163.867z"/>
		<path fill="#0094FF" d="M450.308,163.234c0.36-0.788,1.559-1.165,2.364-1.216c0.839-0.051,1.696,0.205,2.381,0.908
			c0.497,0.514,0.754,1.267,0.754,2.261v5.703h-2.141c0-1.113,0.086-5.018-0.137-5.823c-0.188-0.685-0.719-1.062-1.302-1.062
			c-0.771,0-1.216,0.445-1.216,1.113c-0.257-0.068-0.582-0.394-0.702-0.702v6.474h-2.158v-10.242c0-1.096,0.839-1.764,2.158-1.747
			V163.234z"/>
		<path fill="#FF7000" d="M457.518,170.889v-10.225c0-0.925,0.822-1.73,2.158-1.764v6.902c0,1.559,0.514,3.323,2.295,3.323
			c3.151,0,3.083-5.104-0.017-5.104c-0.617,0-1.422,0.154-1.798,0.702c-0.394-0.719-0.171-2.62,2.09-2.706
			c2.192-0.069,4.23,1.85,4.23,4.539c0,4.179-4.265,5.892-6.799,3.391v0.942H457.518z"/>
		<path fill="#FF7000" d="M474.628,169.913c-2.586,2.569-6.954,0.822-6.954-3.477c0-2.757,2.09-4.727,4.333-4.641
			c2.192,0.086,2.552,2.038,2.141,2.775c-0.377-0.565-1.199-0.719-1.85-0.719c-3.168,0-3.237,5.224,0,5.224
			c1.815,0,2.329-1.815,2.329-3.408v-2.706v-0.942h2.226v8.872h-2.226V169.913z"/>
		<path fill="#FF7000" d="M478.566,170.889v-10.225c0-0.925,0.822-1.73,2.158-1.764v6.902c0,1.559,0.514,3.323,2.295,3.323
			c3.151,0,3.083-5.104-0.017-5.104c-0.617,0-1.422,0.154-1.798,0.702c-0.394-0.719-0.171-2.62,2.09-2.706
			c2.192-0.069,4.23,1.85,4.23,4.539c0,4.179-4.265,5.892-6.799,3.391v0.942H478.566z"/>
		<path fill="#FF7000" d="M495.676,169.913c-2.586,2.569-6.954,0.822-6.954-3.477c0-2.757,2.09-4.727,4.333-4.641
			c2.192,0.086,2.552,2.038,2.141,2.775c-0.377-0.565-1.199-0.719-1.85-0.719c-3.168,0-3.237,5.224,0,5.224
			c1.815,0,2.329-1.815,2.329-3.408v-2.706v-0.942h2.226v8.872h-2.226V169.913z"/>
	</g>
	<g>
		<g>
			<path fill="#0094FF" d="M401.674,156.911c-2.259,1.851-3.924,5.187-3.924,8.334c0,5.576,4.512,10.095,10.09,10.095
				c4.885,0,8.964-3.476,9.893-8.089l-4.077-0.11c-0.796,2.452-3.102,4.222-5.816,4.222c-3.379,0-6.115-2.739-6.115-6.118
				L401.674,156.911z"/>
			<path fill="#FF7000" d="M402.614,156.301c0.914-0.507,2.086-0.879,3.173-1.012l-0.012,0.205v10.057
				c0,1.003,0.889,1.812,1.912,1.812c1.029,0,1.861-0.809,1.861-1.812c0-0.998-0.832-1.809-1.861-1.809
				c-0.417,0-0.8,0.133-1.109,0.359l0.006-3.653c0.359-0.077,0.726-0.118,1.108-0.118c2.819,0,5.108,2.232,5.108,4.983
				c0,2.752-2.289,4.987-5.108,4.987c-2.824,0-5.024-2.235-5.024-4.987l-0.054-8.674V156.301z"/>
			<path fill="#0094FF" d="M406.611,155.153v4.096c0.398-0.078,0.81-0.123,1.229-0.123c2.805,0,5.168,1.889,5.888,4.467h4.071
				c-0.791-4.786-4.949-8.441-9.958-8.441c-0.415,0-0.823,0.027-1.229,0.073"/>
		</g>
	</g>
</g>
</svg>
