<?xml version="1.0" encoding="utf-8"?>
<!-- Generator: Adobe Illustrator 19.0.0, SVG Export Plug-In . SVG Version: 6.00 Build 0)  -->
<svg version="1.1" id="Capa_1" xmlns="http://www.w3.org/2000/svg" xmlns:xlink="http://www.w3.org/1999/xlink" x="38px" y="33px"
	 viewBox="428.826 148.746 38 33" enable-background="new 428.826 148.746 38 33" xml:space="preserve">
<g>
	<g>
		<g>
			<path fill="#0094FF" d="M438.414,152.386c-3.485,2.856-6.054,8.003-6.054,12.858c0,8.603,6.961,15.574,15.568,15.574
				c7.536,0,13.83-5.362,15.264-12.479l-6.291-0.169c-1.228,3.783-4.785,6.514-8.973,6.514c-5.214,0-9.435-4.226-9.435-9.44
				L438.414,152.386z"/>
			<path fill="#FF7000" d="M439.864,151.445c1.41-0.782,3.218-1.356,4.895-1.562l-0.018,0.316v15.516
				c0,1.547,1.372,2.796,2.95,2.796c1.587,0,2.871-1.248,2.871-2.796c0-1.54-1.284-2.791-2.871-2.791
				c-0.643,0-1.235,0.205-1.711,0.553l0.009-5.636c0.554-0.119,1.121-0.182,1.709-0.182c4.349,0,7.881,3.443,7.881,7.687
				c0,4.246-3.532,7.694-7.881,7.694c-4.357,0-7.751-3.448-7.751-7.694l-0.083-13.382V151.445z"/>
			<path fill="#0094FF" d="M446.032,149.674v6.32c0.615-0.12,1.25-0.19,1.896-0.19c4.327,0,7.974,2.915,9.084,6.892h6.28
				c-1.221-7.384-7.635-13.023-15.364-13.023c-0.64,0-1.27,0.042-1.896,0.113"/>
		</g>
	</g>
</g>
</svg>
